<svg id="SvgjsSvg1001" width="475" height="300" xmlns="http://www.w3.org/2000/svg" version="1.1" xmlns:xlink="http://www.w3.org/1999/xlink" xmlns:svgjs="http://svgjs.com/svgjs"><defs id="SvgjsDefs1002"></defs><g id="SvgjsG1013" transform="matrix(1,0,0,1,165.79899978637695,127.0260009765625)"><path id="SvgjsPath1014" d="M12.924000063896179 26.49600068664551Q10.00800006389618 26.49600068664551 7.632000063896179 25.38000068664551Q5.256000063896179 24.26400068664551 3.564000063896179 22.446000686645508Q1.8720000638961793 20.628000686645507 0.9360000638961792 18.288000686645507Q6.389617923652224e-8 15.948000686645507 6.389617923652224e-8 13.464000686645507Q6.389617923652224e-8 10.944000686645508 0.9720000638961792 8.60400068664551Q1.9440000638961794 6.26400068664551 3.6900000638961794 4.4820006866455095Q5.436000063896179 2.7000006866455095 7.830000063896179 1.6380006866455084Q10.22400006389618 0.5760006866455072 13.068000063896179 0.5760006866455072Q15.984000063896179 0.5760006866455072 18.36000006389618 1.6920006866455068Q20.736000063896178 2.8080006866455065 22.428000063896178 4.644000686645509Q24.12000006389618 6.480000686645507 25.038000063896177 8.820000686645507Q25.95600006389618 11.160000686645509 25.95600006389618 13.608000686645507Q25.95600006389618 16.128000686645507 24.98400006389618 18.45000068664551Q24.012000063896178 20.77200068664551 22.28400006389618 22.55400068664551Q20.556000063896178 24.33600068664551 18.16200006389618 25.416000686645507Q15.768000063896178 26.49600068664551 12.924000063896179 26.49600068664551ZM7.128000063896179 13.536000686645508Q7.128000063896179 14.832000686645507 7.488000063896179 16.038000686645507Q7.84800006389618 17.244000686645506 8.568000063896179 18.180000686645506Q9.28800006389618 19.116000686645506 10.38600006389618 19.692000686645507Q11.484000063896179 20.268000686645507 12.99600006389618 20.268000686645507Q14.50800006389618 20.268000686645507 15.62400006389618 19.674000686645506Q16.74000006389618 19.08000068664551 17.44200006389618 18.126000686645508Q18.14400006389618 17.172000686645507 18.486000063896178 15.948000686645507Q18.82800006389618 14.724000686645509 18.82800006389618 13.464000686645507Q18.82800006389618 12.168000686645508 18.46800006389618 10.962000686645508Q18.108000063896178 9.756000686645507 17.37000006389618 8.838000686645508Q16.63200006389618 7.920000686645508 15.53400006389618 7.3620006866455086Q14.436000063896179 6.804000686645509 12.96000006389618 6.804000686645509Q11.44800006389618 6.804000686645509 10.350000063896179 7.380000686645509Q9.25200006389618 7.956000686645506 8.532000063896179 8.910000686645507Q7.812000063896178 9.864000686645507 7.47000006389618 11.070000686645507Q7.128000063896179 12.276000686645508 7.128000063896179 13.536000686645508ZM47.34000006389618 13.824000686645508L47.34000006389618 26.280000686645508L40.50000006389618 26.280000686645508L40.50000006389618 15.624000686645507Q40.50000006389618 14.220000686645507 39.87000006389618 13.590000686645508Q39.240000063896176 12.960000686645508 38.41200006389618 12.960000686645508Q37.54800006389618 12.960000686645508 36.57600006389618 13.716000686645508Q35.60400006389618 14.472000686645508 35.13600006389618 15.660000686645509L35.13600006389618 26.280000686645508L28.29600006389618 26.280000686645508L28.29600006389618 7.344000686645508L34.45200006389618 7.344000686645508L34.45200006389618 10.152000686645508Q35.46000006389618 8.60400068664551 37.27800006389618 7.794000686645507Q39.09600006389618 6.984000686645508 41.58000006389618 6.984000686645508Q43.52400006389618 6.984000686645508 44.65800006389618 7.686000686645507Q45.79200006389618 8.388000686645508 46.38600006389618 9.432000686645509Q46.98000006389618 10.476000686645508 47.16000006389618 11.664000686645508Q47.34000006389618 12.852000686645507 47.34000006389618 13.824000686645508ZM59.97600006389618 26.640000686645507Q57.49200006389618 26.640000686645507 55.54800006389618 25.866000686645506Q53.60400006389618 25.09200068664551 52.29000006389618 23.76000068664551Q50.97600006389618 22.428000686645507 50.29200006389618 20.70000068664551Q49.60800006389618 18.972000686645508 49.60800006389618 17.064000686645507Q49.60800006389618 15.012000686645507 50.27400006389618 13.176000686645509Q50.94000006389618 11.340000686645508 52.25400006389618 9.972000686645508Q53.56800006389618 8.60400068664551 55.49400006389618 7.794000686645507Q57.42000006389618 6.984000686645508 59.97600006389618 6.984000686645508Q62.496000063896176 6.984000686645508 64.44000006389618 7.794000686645507Q66.38400006389618 8.60400068664551 67.69800006389617 9.954000686645507Q69.01200006389618 11.304000686645507 69.67800006389618 13.086000686645507Q70.34400006389617 14.868000686645507 70.34400006389617 16.812000686645508Q70.34400006389617 17.352000686645507 70.29000006389617 17.91000068664551Q70.23600006389618 18.468000686645507 70.16400006389618 18.90000068664551L56.880000063896176 18.90000068664551Q56.98800006389618 20.412000686645506 57.996000063896176 21.07800068664551Q59.00400006389618 21.744000686645506 60.19200006389618 21.744000686645506Q61.30800006389618 21.744000686645506 62.29800006389618 21.24000068664551Q63.28800006389618 20.736000686645507 63.612000063896176 19.83600068664551L69.40800006389618 21.492000686645508Q68.25600006389618 23.76000068664551 65.86200006389618 25.20000068664551Q63.468000063896184 26.640000686645507 59.97600006389618 26.640000686645507ZM56.73600006389618 14.796000686645508L63.00000006389618 14.796000686645508Q62.82000006389618 13.428000686645507 61.99200006389618 12.636000686645508Q61.16400006389618 11.844000686645508 59.868000063896176 11.844000686645508Q58.572000063896176 11.844000686645508 57.74400006389618 12.636000686645508Q56.91600006389618 13.428000686645507 56.73600006389618 14.796000686645508ZM79.74000006389618 13.284000686645507Q79.74000006389618 10.944000686645508 80.62200006389618 8.676000686645509Q81.50400006389619 6.408000686645508 83.19600006389618 4.608000686645507Q84.88800006389619 2.8080006866455065 87.30000006389618 1.6920006866455068Q89.71200006389618 0.5760006866455072 92.80800006389617 0.5760006866455072Q96.51600006389619 0.5760006866455072 99.23400006389618 2.1060006866455083Q101.95200006389618 3.6360006866455095 103.28400006389617 6.156000686645509L97.92000006389618 9.972000686645508Q97.56000006389618 9.036000686645508 96.96600006389617 8.424000686645506Q96.37200006389618 7.812000686645508 95.65200006389618 7.452000686645508Q94.93200006389618 7.092000686645509 94.15800006389618 6.948000686645507Q93.38400006389618 6.804000686645509 92.66400006389618 6.804000686645509Q91.15200006389618 6.804000686645509 90.05400006389618 7.398000686645506Q88.95600006389618 7.992000686645508 88.25400006389619 8.946000686645508Q87.55200006389617 9.900000686645509 87.21000006389617 11.106000686645508Q86.86800006389618 12.312000686645508 86.86800006389618 13.500000686645508Q86.86800006389618 14.832000686645507 87.26400006389618 16.056000686645508Q87.66000006389618 17.280000686645508 88.41600006389618 18.216000686645508Q89.17200006389618 19.152000686645508 90.27000006389618 19.710000686645508Q91.36800006389618 20.268000686645507 92.73600006389618 20.268000686645507Q93.45600006389618 20.268000686645507 94.21200006389618 20.10600068664551Q94.96800006389618 19.94400068664551 95.67000006389618 19.56600068664551Q96.37200006389618 19.18800068664551 96.93000006389617 18.594000686645508Q97.48800006389618 18.000000686645507 97.81200006389618 17.13600068664551L103.53600006389618 20.556000686645508Q102.96000006389617 21.960000686645508 101.79000006389617 23.076000686645507Q100.62000006389619 24.192000686645507 99.12600006389619 24.948000686645507Q97.63200006389619 25.704000686645507 95.92200006389618 26.100000686645508Q94.21200006389618 26.49600068664551 92.59200006389618 26.49600068664551Q89.74800006389619 26.49600068664551 87.39000006389618 25.36200068664551Q85.03200006389618 24.228000686645508 83.32200006389618 22.35600068664551Q81.61200006389618 20.48400068664551 80.67600006389618 18.108000686645507Q79.74000006389618 15.732000686645508 79.74000006389618 13.284000686645507ZM111.27600006389618 26.640000686645507Q108.39600006389618 26.640000686645507 106.88400006389618 24.89400068664551Q105.37200006389618 23.148000686645506 105.37200006389618 19.800000686645507L105.37200006389618 7.344000686645508L112.21200006389618 7.344000686645508L112.21200006389618 18.25200068664551Q112.21200006389618 19.512000686645507 112.77000006389618 20.196000686645508Q113.32800006389618 20.88000068664551 114.30000006389618 20.88000068664551Q115.09200006389618 20.88000068664551 115.92000006389618 20.52000068664551Q116.74800006389619 20.160000686645507 117.57600006389617 18.936000686645507L117.57600006389617 7.344000686645508L124.41600006389618 7.344000686645508L124.41600006389618 18.72000068664551Q124.41600006389618 19.692000686645507 124.70400006389617 20.070000686645507Q124.99200006389619 20.448000686645507 125.71200006389618 20.52000068664551L125.71200006389618 26.280000686645508Q123.94800006389617 26.640000686645507 122.83200006389617 26.640000686645507Q119.34000006389618 26.640000686645507 118.80000006389618 24.012000686645507L118.65600006389617 23.32800068664551Q117.32400006389618 25.09200068664551 115.48800006389618 25.866000686645506Q113.65200006389618 26.640000686645507 111.27600006389618 26.640000686645507ZM140.5800000638962 26.640000686645507Q136.29600006389617 26.640000686645507 134.4600000638962 23.32800068664551L134.4600000638962 26.280000686645508L128.5200000638962 26.280000686645508L128.5200000638962 6.866455066756316e-7L135.36000006389617 6.866455066756316e-7L135.36000006389617 10.152000686645508Q136.18800006389617 8.60400068664551 137.70000006389617 7.794000686645507Q139.21200006389617 6.984000686645508 141.2640000638962 6.984000686645508Q142.99200006389617 6.984000686645508 144.48600006389617 7.740000686645509Q145.98000006389617 8.496000686645509 147.06000006389618 9.810000686645509Q148.14000006389617 11.124000686645507 148.7520000638962 12.942000686645509Q149.36400006389619 14.760000686645508 149.36400006389619 16.884000686645507Q149.36400006389619 19.00800068664551 148.6980000638962 20.790000686645506Q148.0320000638962 22.57200068664551 146.86200006389618 23.86800068664551Q145.6920000638962 25.164000686645508 144.07200006389618 25.902000686645508Q142.45200006389618 26.640000686645507 140.5800000638962 26.640000686645507ZM138.60000006389618 20.88000068664551Q140.29200006389618 20.88000068664551 141.3180000638962 19.800000686645507Q142.34400006389617 18.72000068664551 142.34400006389617 16.92000068664551Q142.34400006389617 16.056000686645508 142.0740000638962 15.300000686645507Q141.80400006389618 14.544000686645507 141.35400006389617 13.968000686645508Q140.90400006389618 13.392000686645508 140.27400006389618 13.068000686645508Q139.6440000638962 12.744000686645508 138.8880000638962 12.744000686645508Q137.80800006389617 12.744000686645508 136.83600006389617 13.518000686645507Q135.86400006389619 14.292000686645508 135.36000006389617 15.552000686645508L135.36000006389617 18.936000686645507Q136.6920000638962 20.88000068664551 138.60000006389618 20.88000068664551ZM161.13600006389618 26.640000686645507Q158.65200006389617 26.640000686645507 156.70800006389618 25.866000686645506Q154.7640000638962 25.09200068664551 153.45000006389617 23.76000068664551Q152.13600006389618 22.428000686645507 151.45200006389618 20.70000068664551Q150.76800006389618 18.972000686645508 150.76800006389618 17.064000686645507Q150.76800006389618 15.012000686645507 151.43400006389618 13.176000686645509Q152.10000006389618 11.340000686645508 153.41400006389617 9.972000686645508Q154.7280000638962 8.60400068664551 156.65400006389618 7.794000686645507Q158.5800000638962 6.984000686645508 161.13600006389618 6.984000686645508Q163.6560000638962 6.984000686645508 165.60000006389618 7.794000686645507Q167.5440000638962 8.60400068664551 168.85800006389618 9.954000686645507Q170.17200006389618 11.304000686645507 170.83800006389617 13.086000686645507Q171.50400006389617 14.868000686645507 171.50400006389617 16.812000686645508Q171.50400006389617 17.352000686645507 171.45000006389617 17.91000068664551Q171.39600006389617 18.468000686645507 171.3240000638962 18.90000068664551L158.04000006389617 18.90000068664551Q158.14800006389618 20.412000686645506 159.1560000638962 21.07800068664551Q160.16400006389617 21.744000686645506 161.35200006389618 21.744000686645506Q162.46800006389617 21.744000686645506 163.45800006389618 21.24000068664551Q164.4480000638962 20.736000686645507 164.77200006389617 19.83600068664551L170.5680000638962 21.492000686645508Q169.41600006389618 23.76000068664551 167.02200006389617 25.20000068664551Q164.62800006389617 26.640000686645507 161.13600006389618 26.640000686645507ZM157.89600006389617 14.796000686645508L164.16000006389618 14.796000686645508Q163.98000006389617 13.428000686645507 163.15200006389617 12.636000686645508Q162.3240000638962 11.844000686645508 161.02800006389617 11.844000686645508Q159.73200006389618 11.844000686645508 158.90400006389618 12.636000686645508Q158.07600006389617 13.428000686645507 157.89600006389617 14.796000686645508ZM193.46400006389618 20.268000686645507Q194.68800006389617 20.268000686645507 195.55200006389617 19.728000686645508Q196.41600006389618 19.18800068664551 196.95600006389617 18.306000686645508Q197.4960000638962 17.424000686645506 197.74800006389617 16.27200068664551Q198.00000006389618 15.120000686645508 198.00000006389618 13.860000686645508L198.00000006389618 0.7200006866455091L205.0200000638962 0.7200006866455091L205.0200000638962 13.860000686645508Q205.0200000638962 16.524000686645508 204.33600006389617 18.846000686645507Q203.65200006389617 21.168000686645506 202.21200006389617 22.860000686645506Q200.77200006389617 24.552000686645506 198.59400006389617 25.524000686645508Q196.41600006389618 26.49600068664551 193.46400006389618 26.49600068664551Q190.40400006389618 26.49600068664551 188.22600006389618 25.47000068664551Q186.04800006389618 24.44400068664551 184.6440000638962 22.716000686645508Q183.2400000638962 20.988000686645506 182.59200006389617 18.70200068664551Q181.94400006389617 16.416000686645507 181.94400006389617 13.860000686645508L181.94400006389617 0.7200006866455091L188.96400006389618 0.7200006866455091L188.96400006389618 13.860000686645508Q188.96400006389618 15.120000686645508 189.2160000638962 16.290000686645506Q189.46800006389617 17.460000686645508 190.0080000638962 18.34200068664551Q190.54800006389618 19.224000686645507 191.3940000638962 19.74600068664551Q192.2400000638962 20.268000686645507 193.46400006389618 20.268000686645507ZM220.96800006389617 26.640000686645507Q218.91600006389618 26.640000686645507 217.40400006389618 25.83000068664551Q215.89200006389618 25.020000686645506 215.06400006389617 23.472000686645508L215.06400006389617 33.94800068664551L208.22400006389617 33.94800068664551L208.22400006389617 7.344000686645508L214.16400006389617 7.344000686645508L214.16400006389617 10.188000686645509Q215.17200006389618 8.640000686645507 216.64800006389618 7.812000686645508Q218.12400006389618 6.984000686645508 220.28400006389617 6.984000686645508Q222.1560000638962 6.984000686645508 223.7760000638962 7.722000686645508Q225.39600006389617 8.460000686645508 226.54800006389618 9.756000686645507Q227.70000006389617 11.052000686645508 228.36600006389617 12.852000686645507Q229.0320000638962 14.652000686645508 229.0320000638962 16.74000068664551Q229.0320000638962 18.864000686645507 228.42000006389617 20.68200068664551Q227.80800006389617 22.500000686645507 226.7280000638962 23.832000686645507Q225.64800006389618 25.164000686645508 224.17200006389618 25.902000686645508Q222.69600006389618 26.640000686645507 220.96800006389617 26.640000686645507ZM218.59200006389617 20.88000068664551Q219.34800006389617 20.88000068664551 219.9780000638962 20.556000686645508Q220.60800006389618 20.232000686645506 221.05800006389617 19.65600068664551Q221.5080000638962 19.08000068664551 221.77800006389617 18.32400068664551Q222.04800006389618 17.568000686645508 222.04800006389618 16.704000686645507Q222.04800006389618 14.904000686645508 221.02200006389617 13.824000686645508Q219.9960000638962 12.744000686645508 218.30400006389618 12.744000686645508Q216.39600006389617 12.744000686645508 215.06400006389617 14.688000686645507L215.06400006389617 17.964000686645505Q215.5680000638962 19.224000686645507 216.54000006389617 20.052000686645506Q217.51200006389618 20.88000068664551 218.59200006389617 20.88000068664551Z " fill="#0023cb"></path></g><g id="SvgjsG1015" transform="matrix(1,0,0,1,35.79899978637695,62)"><title>0082_3D_cube_verti</title><path id="color_1" d="M48.15,103.28l24.68,14.25a7.58,7.58,0,0,0,7.57,0l24.68-14.25a7.58,7.58,0,0,0,3.78-6.55V68.22a7.56,7.56,0,0,0-3.78-6.55L80.4,47.42a7.58,7.58,0,0,0-7.57,0L48.15,61.67a7.56,7.56,0,0,0-3.78,6.55V96.73A7.58,7.58,0,0,0,48.15,103.28Z" fill="#0023cb"></path><path id="color_2" d="M102.18,69.66,78.32,83.44v27.05a1.67,1.67,0,1,1-3.34,0v-27L51.38,69.81A1.67,1.67,0,0,1,53,66.92L76.65,80.55l23.86-13.78a1.67,1.67,0,0,1,1.67,2.89ZM78.32,53.8v-.67a1.67,1.67,0,0,0-3.34,0v.67a1.67,1.67,0,1,0,3.34,0Zm0,13.68V66.34a1.67,1.67,0,0,0-3.34,0v1.14a1.67,1.67,0,0,0,3.34,0Zm0-6.84V59.5a1.67,1.67,0,1,0-3.34,0v1.14a1.67,1.67,0,0,0,3.34,0Zm0,13.21v-.66a1.67,1.67,0,1,0-3.34,0v.66a1.67,1.67,0,1,0,3.34,0Zm7,11.68-.58-.33A1.67,1.67,0,1,0,83,88.09l.58.33a1.67,1.67,0,0,0,1.67-2.89Zm11.85,6.84-1-.57a1.67,1.67,0,1,0-1.67,2.89l1,.57a1.67,1.67,0,0,0,1.67-2.89ZM91.2,89l-1-.57a1.67,1.67,0,1,0-1.67,2.89l1,.57A1.67,1.67,0,1,0,91.2,89Zm11.45,6.61-.58-.33a1.66,1.66,0,1,0-1.67,2.88l.58.34a1.67,1.67,0,0,0,1.67-2.89ZM66.94,87.81a1.67,1.67,0,0,0,2.28.61l.57-.33a1.67,1.67,0,1,0-1.66-2.89l-.58.33A1.67,1.67,0,0,0,66.94,87.81ZM55.09,94.65a1.67,1.67,0,0,0,2.28.61l1-.57a1.67,1.67,0,0,0-1.66-2.89l-1,.57A1.67,1.67,0,0,0,55.09,94.65ZM61,91.23a1.67,1.67,0,0,0,2.28.61l1-.57a1.67,1.67,0,0,0-1.67-2.89l-1,.57A1.68,1.68,0,0,0,61,91.23ZM49.57,97.84a1.67,1.67,0,0,0,2.28.61l.58-.34a1.66,1.66,0,1,0-1.67-2.88l-.58.33A1.67,1.67,0,0,0,49.57,97.84Z" fill="#3edb34"></path></g></svg>